<svg xmlns="http://www.w3.org/2000/svg" width="24" height="24" viewBox="0 0 24 24">
  <path fill="#333" d="M14.3498433,9.92873905 L14.6635,8.75822 L15.6294,9.01704 L15.2752505,10.3388378 C16.9811035,11.2263794 18,12.5 18,12.5 C18,12.5 15.4606,15.5 12,15.5 C8.4,15.5 6,12.5 6,12.5 C6,12.5 6.97229637,11.2846295 8.60745913,10.4010385 L8.24118,9.03407 L9.20711,8.775255 L9.52848239,9.97464102 C10.1261475,9.74329254 10.7867508,9.57435682 11.5,9.51929487 L11.5,8 L12.5,8 L12.5,9.51929487 C13.1651873,9.5706465 13.7845846,9.72104231 14.3498433,9.92873905 Z M9.31488015,11.1605658 C8.91694529,11.3577384 8.55406969,11.5831421 8.23124,11.813735 C7.896875,12.052565 7.613125,12.291645 7.386875,12.5 C7.613125,12.70836 7.896875,12.947435 8.23124,13.18625 C8.55406891,13.4168457 8.91694353,13.6422517 9.31488015,13.8394262 C9.1133743,13.4362608 9,12.98137 9,12.5 C9,12.0186262 9.11337539,11.5637328 9.31488015,11.1605658 Z M14.6851218,11.1605715 C14.8866253,11.5637371 15,12.0186285 15,12.5 C15,12.9649669 14.8942203,13.4052285 14.7054131,13.7980324 C15.0727231,13.6104073 15.413695,13.3990069 15.72285,13.1818 C16.06705,12.939935 16.362,12.697685 16.5985,12.486565 C16.3747,12.2814 16.09595,12.04745 15.76875,11.813735 C15.4459217,11.5831443 15.0830506,11.3577428 14.6851218,11.1605715 Z M12,14.5 C13.10455,14.5 14,13.60455 14,12.5 C14,11.39543 13.10455,10.5 12,10.5 C10.89543,10.5 10,11.39543 10,12.5 C10,13.60455 10.89543,14.5 12,14.5 Z"/>
</svg>
