<svg xmlns="http://www.w3.org/2000/svg" width="24" height="24" viewBox="0 0 24 24">
  <path fill="#333" d="M18,12.5 C18,12.5 16.8593,13.21294 14.9711,13.655795 C14.12045,13.855305 13.1181,14 12,14 C10.83528,14 9.79619,13.84299 8.923325,13.63057 C7.098265,13.186415 6,12.5 6,12.5 C6,12.5 6.950255,13.68783 8.55182,14.56863 C8.571595,14.5795 8.59146,14.59033 8.611435,14.601105 L8.241165,15.98296 L9.20709,16.24178 L9.53261,15.026955 C10.092865,15.243445 10.708345,15.405045 11.37055,15.46942 L11.37055,17 L12.37055,17 L12.37055,15.488585 C13.07735,15.445145 13.7416,15.280855 14.3487,15.04998 L14.66345,16.224745 L15.6294,15.965925 L15.2716,14.630645 C15.29275,14.619465 15.3138,14.60823 15.3347,14.596935 C16.9728,13.713515 18,12.5 18,12.5 Z"/>
</svg>
