<?xml version="1.0" encoding="utf-8"?>
<svg xmlns="http://www.w3.org/2000/svg">
<symbol id="arrow-left" viewBox="0 0 24 24">
  <polygon fill="#333" points="15.086 11 12.757 8.672 13.464 7.964 17 11.5 13.464 15.036 12.757 14.328 15.086 12 7.793 12 7.793 11 15.086 11" transform="matrix(-1 0 0 1 24.793 0)"/>

</symbol>
<symbol id="arrow-right" viewBox="0 0 24 24">
  <polygon fill="#333" points="14.293 11 11.964 8.672 12.672 7.964 16.207 11.5 12.672 15.036 11.964 14.328 14.293 12 7 12 7 11 14.293 11"/>

</symbol>
<symbol id="chevron-down" viewBox="0 0 24 24">
  <polygon fill="#333" points="12 13.284 15.536 9.749 16.243 10.456 12 14.699 7.757 10.456 8.464 9.749 12 13.284"/>

</symbol>
<symbol id="chevron-left" viewBox="0 0 24 24">
  <polygon fill="#333" points="11.776 13.061 15.312 9.525 16.019 10.232 11.776 14.475 7.534 10.232 8.241 9.525 11.776 13.061" transform="rotate(-90 23.776 0)"/>

</symbol>
<symbol id="chevron-right" viewBox="0 0 24 24">
  <polygon fill="#333" points="12.224 13.061 15.759 9.525 16.466 10.232 12.224 14.475 7.981 10.232 8.688 9.525 12.224 13.061" transform="rotate(-90 12.224 12)"/>

</symbol>
<symbol id="chevron-up" viewBox="0 0 24 24">
  <polygon fill="#333" points="12 12.863 15.536 9.328 16.243 10.035 12 14.277 7.757 10.035 8.464 9.328 12 12.863" transform="matrix(1 0 0 -1 0 23.605)"/>

</symbol>
<symbol id="close" viewBox="0 0 24 24">
  <polygon fill="#333" points="12.709 12 16.243 15.533 15.536 16.24 12.002 12.707 12 12.709 11.998 12.707 8.464 16.24 7.757 15.533 11.291 12 7.757 8.467 8.464 7.76 11.998 11.293 12 11.291 12.002 11.293 15.536 7.76 16.243 8.467 12.709 12"/>

</symbol>
<symbol id="eye-closed" viewBox="0 0 24 24">
  <path fill="#333" d="M18,12.5 C18,12.5 16.8593,13.21294 14.9711,13.655795 C14.12045,13.855305 13.1181,14 12,14 C10.83528,14 9.79619,13.84299 8.923325,13.63057 C7.098265,13.186415 6,12.5 6,12.5 C6,12.5 6.950255,13.68783 8.55182,14.56863 C8.571595,14.5795 8.59146,14.59033 8.611435,14.601105 L8.241165,15.98296 L9.20709,16.24178 L9.53261,15.026955 C10.092865,15.243445 10.708345,15.405045 11.37055,15.46942 L11.37055,17 L12.37055,17 L12.37055,15.488585 C13.07735,15.445145 13.7416,15.280855 14.3487,15.04998 L14.66345,16.224745 L15.6294,15.965925 L15.2716,14.630645 C15.29275,14.619465 15.3138,14.60823 15.3347,14.596935 C16.9728,13.713515 18,12.5 18,12.5 Z"/>

</symbol>
<symbol id="eye-opened" viewBox="0 0 24 24">
  <path fill="#333" d="M14.3498433,9.92873905 L14.6635,8.75822 L15.6294,9.01704 L15.2752505,10.3388378 C16.9811035,11.2263794 18,12.5 18,12.5 C18,12.5 15.4606,15.5 12,15.5 C8.4,15.5 6,12.5 6,12.5 C6,12.5 6.97229637,11.2846295 8.60745913,10.4010385 L8.24118,9.03407 L9.20711,8.775255 L9.52848239,9.97464102 C10.1261475,9.74329254 10.7867508,9.57435682 11.5,9.51929487 L11.5,8 L12.5,8 L12.5,9.51929487 C13.1651873,9.5706465 13.7845846,9.72104231 14.3498433,9.92873905 Z M9.31488015,11.1605658 C8.91694529,11.3577384 8.55406969,11.5831421 8.23124,11.813735 C7.896875,12.052565 7.613125,12.291645 7.386875,12.5 C7.613125,12.70836 7.896875,12.947435 8.23124,13.18625 C8.55406891,13.4168457 8.91694353,13.6422517 9.31488015,13.8394262 C9.1133743,13.4362608 9,12.98137 9,12.5 C9,12.0186262 9.11337539,11.5637328 9.31488015,11.1605658 Z M14.6851218,11.1605715 C14.8866253,11.5637371 15,12.0186285 15,12.5 C15,12.9649669 14.8942203,13.4052285 14.7054131,13.7980324 C15.0727231,13.6104073 15.413695,13.3990069 15.72285,13.1818 C16.06705,12.939935 16.362,12.697685 16.5985,12.486565 C16.3747,12.2814 16.09595,12.04745 15.76875,11.813735 C15.4459217,11.5831443 15.0830506,11.3577428 14.6851218,11.1605715 Z M12,14.5 C13.10455,14.5 14,13.60455 14,12.5 C14,11.39543 13.10455,10.5 12,10.5 C10.89543,10.5 10,11.39543 10,12.5 C10,13.60455 10.89543,14.5 12,14.5 Z"/>

</symbol>
<symbol id="icons-sprite">
<symbol id="arrow-left" viewBox="0 0 24 24">
  <polygon fill="#333" points="15.086 11 12.757 8.672 13.464 7.964 17 11.5 13.464 15.036 12.757 14.328 15.086 12 7.793 12 7.793 11 15.086 11" transform="matrix(-1 0 0 1 24.793 0)"/>

</symbol>
<symbol id="arrow-right" viewBox="0 0 24 24">
  <polygon fill="#333" points="14.293 11 11.964 8.672 12.672 7.964 16.207 11.5 12.672 15.036 11.964 14.328 14.293 12 7 12 7 11 14.293 11"/>

</symbol>
<symbol id="chevron-down" viewBox="0 0 24 24">
  <polygon fill="#333" points="12 13.284 15.536 9.749 16.243 10.456 12 14.699 7.757 10.456 8.464 9.749 12 13.284"/>

</symbol>
<symbol id="chevron-left" viewBox="0 0 24 24">
  <polygon fill="#333" points="11.776 13.061 15.312 9.525 16.019 10.232 11.776 14.475 7.534 10.232 8.241 9.525 11.776 13.061" transform="rotate(-90 23.776 0)"/>

</symbol>
<symbol id="chevron-right" viewBox="0 0 24 24">
  <polygon fill="#333" points="12.224 13.061 15.759 9.525 16.466 10.232 12.224 14.475 7.981 10.232 8.688 9.525 12.224 13.061" transform="rotate(-90 12.224 12)"/>

</symbol>
<symbol id="chevron-up" viewBox="0 0 24 24">
  <polygon fill="#333" points="12 12.863 15.536 9.328 16.243 10.035 12 14.277 7.757 10.035 8.464 9.328 12 12.863" transform="matrix(1 0 0 -1 0 23.605)"/>

</symbol>
<symbol id="close" viewBox="0 0 24 24">
  <polygon fill="#333" points="12.709 12 16.243 15.533 15.536 16.24 12.002 12.707 12 12.709 11.998 12.707 8.464 16.24 7.757 15.533 11.291 12 7.757 8.467 8.464 7.76 11.998 11.293 12 11.291 12.002 11.293 15.536 7.76 16.243 8.467 12.709 12"/>

</symbol>
<symbol id="eye-closed" viewBox="0 0 24 24">
  <path fill="#333" d="M18,12.5 C18,12.5 16.8593,13.21294 14.9711,13.655795 C14.12045,13.855305 13.1181,14 12,14 C10.83528,14 9.79619,13.84299 8.923325,13.63057 C7.098265,13.186415 6,12.5 6,12.5 C6,12.5 6.950255,13.68783 8.55182,14.56863 C8.571595,14.5795 8.59146,14.59033 8.611435,14.601105 L8.241165,15.98296 L9.20709,16.24178 L9.53261,15.026955 C10.092865,15.243445 10.708345,15.405045 11.37055,15.46942 L11.37055,17 L12.37055,17 L12.37055,15.488585 C13.07735,15.445145 13.7416,15.280855 14.3487,15.04998 L14.66345,16.224745 L15.6294,15.965925 L15.2716,14.630645 C15.29275,14.619465 15.3138,14.60823 15.3347,14.596935 C16.9728,13.713515 18,12.5 18,12.5 Z"/>

</symbol>
<symbol id="eye-opened" viewBox="0 0 24 24">
  <path fill="#333" d="M14.3498433,9.92873905 L14.6635,8.75822 L15.6294,9.01704 L15.2752505,10.3388378 C16.9811035,11.2263794 18,12.5 18,12.5 C18,12.5 15.4606,15.5 12,15.5 C8.4,15.5 6,12.5 6,12.5 C6,12.5 6.97229637,11.2846295 8.60745913,10.4010385 L8.24118,9.03407 L9.20711,8.775255 L9.52848239,9.97464102 C10.1261475,9.74329254 10.7867508,9.57435682 11.5,9.51929487 L11.5,8 L12.5,8 L12.5,9.51929487 C13.1651873,9.5706465 13.7845846,9.72104231 14.3498433,9.92873905 Z M9.31488015,11.1605658 C8.91694529,11.3577384 8.55406969,11.5831421 8.23124,11.813735 C7.896875,12.052565 7.613125,12.291645 7.386875,12.5 C7.613125,12.70836 7.896875,12.947435 8.23124,13.18625 C8.55406891,13.4168457 8.91694353,13.6422517 9.31488015,13.8394262 C9.1133743,13.4362608 9,12.98137 9,12.5 C9,12.0186262 9.11337539,11.5637328 9.31488015,11.1605658 Z M14.6851218,11.1605715 C14.8866253,11.5637371 15,12.0186285 15,12.5 C15,12.9649669 14.8942203,13.4052285 14.7054131,13.7980324 C15.0727231,13.6104073 15.413695,13.3990069 15.72285,13.1818 C16.06705,12.939935 16.362,12.697685 16.5985,12.486565 C16.3747,12.2814 16.09595,12.04745 15.76875,11.813735 C15.4459217,11.5831443 15.0830506,11.3577428 14.6851218,11.1605715 Z M12,14.5 C13.10455,14.5 14,13.60455 14,12.5 C14,11.39543 13.10455,10.5 12,10.5 C10.89543,10.5 10,11.39543 10,12.5 C10,13.60455 10.89543,14.5 12,14.5 Z"/>

</symbol>
<symbol id="rotate" viewBox="0 0 24 24">
  <path fill="#333" d="M14.2928932,9.99553391 L11.5,9.99553391 C9.567005,9.99553391 8,11.5625389 8,13.4955339 C8,15.4285339 9.567005,16.9955339 11.5,16.9955339 C13.433,16.9955339 15,15.4285339 15,13.4955339 L16,12.4955339 L16,13.4955339 C16,15.9808339 13.9853,17.9955339 11.5,17.9955339 C9.01472,17.9955339 7,15.9808339 7,13.4955339 C7,11.0102539 9.01472,8.99553391 11.5,8.99553391 L14.2928932,8.99553391 L11.9644661,6.66710678 L12.6715729,5.96 L16.2071068,9.49553391 L12.6715729,13.0310678 L11.9644661,12.323961 L14.2928932,9.99553391 Z"/>

</symbol>
<symbol id="sidebar-closed" viewBox="0 0 24 24">
  <path fill="#333" d="M7,8 L17,8 C17.5522847,8 18,8.44771525 18,9 L18,15 C18,15.5522847 17.5522847,16 17,16 L7,16 C6.44771525,16 6,15.5522847 6,15 L6,9 C6,8.44771525 6.44771525,8 7,8 Z M8,13.5 L8,15 L17,15 L17,9 L8,9 L8,10.5 L10,12 L8,13.5 Z"/>

</symbol>
<symbol id="sidebar-opened" viewBox="0 0 24 24">
  <path fill="#333" d="M11,10.875 L11,9 L7,9 L7,15 L11,15 L11,13.125 L10,12 L11,10.875 Z M7,8 L17,8 C17.5522847,8 18,8.44771525 18,9 L18,15 C18,15.5522847 17.5522847,16 17,16 L7,16 C6.44771525,16 6,15.5522847 6,15 L6,9 C6,8.44771525 6.44771525,8 7,8 Z M12,9 L12,15 L17,15 L17,9 L12,9 Z"/>

</symbol>
<symbol id="text-align-left" viewBox="0 0 24 24">
  <path fill="#333" d="M8,12 L8,11 L16,11 L16,12 L8,12 Z M8,15 L8,14 L12,14 L12,15 L8,15 Z M8,9 L8,8 L16,8 L16,9 L8,9 Z"/>

</symbol>
</symbol>
<symbol id="rotate" viewBox="0 0 24 24">
  <path fill="#333" d="M14.2928932,9.99553391 L11.5,9.99553391 C9.567005,9.99553391 8,11.5625389 8,13.4955339 C8,15.4285339 9.567005,16.9955339 11.5,16.9955339 C13.433,16.9955339 15,15.4285339 15,13.4955339 L16,12.4955339 L16,13.4955339 C16,15.9808339 13.9853,17.9955339 11.5,17.9955339 C9.01472,17.9955339 7,15.9808339 7,13.4955339 C7,11.0102539 9.01472,8.99553391 11.5,8.99553391 L14.2928932,8.99553391 L11.9644661,6.66710678 L12.6715729,5.96 L16.2071068,9.49553391 L12.6715729,13.0310678 L11.9644661,12.323961 L14.2928932,9.99553391 Z"/>

</symbol>
<symbol id="sidebar-closed" viewBox="0 0 24 24">
  <path fill="#333" d="M7,8 L17,8 C17.5522847,8 18,8.44771525 18,9 L18,15 C18,15.5522847 17.5522847,16 17,16 L7,16 C6.44771525,16 6,15.5522847 6,15 L6,9 C6,8.44771525 6.44771525,8 7,8 Z M8,13.5 L8,15 L17,15 L17,9 L8,9 L8,10.5 L10,12 L8,13.5 Z"/>

</symbol>
<symbol id="sidebar-opened" viewBox="0 0 24 24">
  <path fill="#333" d="M11,10.875 L11,9 L7,9 L7,15 L11,15 L11,13.125 L10,12 L11,10.875 Z M7,8 L17,8 C17.5522847,8 18,8.44771525 18,9 L18,15 C18,15.5522847 17.5522847,16 17,16 L7,16 C6.44771525,16 6,15.5522847 6,15 L6,9 C6,8.44771525 6.44771525,8 7,8 Z M12,9 L12,15 L17,15 L17,9 L12,9 Z"/>

</symbol>
<symbol id="text-align-left" viewBox="0 0 24 24">
  <path fill="#333" d="M8,12 L8,11 L16,11 L16,12 L8,12 Z M8,15 L8,14 L12,14 L12,15 L8,15 Z M8,9 L8,8 L16,8 L16,9 L8,9 Z"/>

</symbol></svg>