<svg xmlns="http://www.w3.org/2000/svg" width="24" height="24" viewBox="0 0 24 24">
  <path fill="#333" d="M14.2928932,9.99553391 L11.5,9.99553391 C9.567005,9.99553391 8,11.5625389 8,13.4955339 C8,15.4285339 9.567005,16.9955339 11.5,16.9955339 C13.433,16.9955339 15,15.4285339 15,13.4955339 L16,12.4955339 L16,13.4955339 C16,15.9808339 13.9853,17.9955339 11.5,17.9955339 C9.01472,17.9955339 7,15.9808339 7,13.4955339 C7,11.0102539 9.01472,8.99553391 11.5,8.99553391 L14.2928932,8.99553391 L11.9644661,6.66710678 L12.6715729,5.96 L16.2071068,9.49553391 L12.6715729,13.0310678 L11.9644661,12.323961 L14.2928932,9.99553391 Z"/>
</svg>
