<?xml version="1.0" encoding="UTF-8"?>
<svg width="921px" height="284px" viewBox="0 0 921 284" version="1.1" xmlns="http://www.w3.org/2000/svg" xmlns:xlink="http://www.w3.org/1999/xlink">
    <!-- Generator: Sketch 49.3 (51167) - http://www.bohemiancoding.com/sketch -->
    <title>berlinische-galerie</title>
    <desc>Created with Sketch.</desc>
    <defs></defs>
    <g id="Page-1" stroke="none" stroke-width="1" fill="none" fill-rule="evenodd">
        <g id="berlinische-galerie" fill="#000000">
            <path d="M351.061,55.841 L362.731,55.841 C367.039,55.841 370.791,54.452 370.791,49.31 C370.791,44.239 367.595,42.225 362.94,42.225 L351.061,42.225 L351.061,55.841 Z M351.061,34.79 L362.106,34.79 C365.928,34.79 368.776,33.054 368.776,28.886 C368.776,24.161 365.163,23.188 361.272,23.188 L351.061,23.188 L351.061,34.79 Z M340.153,14.713 L363.496,14.713 C372.944,14.713 379.336,17.77 379.336,27.01 C379.336,31.873 376.904,35.277 372.597,37.361 C378.642,39.098 381.698,43.753 381.698,49.936 C381.698,60.01 373.152,64.317 364.19,64.317 L340.153,64.317 L340.153,14.713 Z" id="Fill-1" fill-rule="nonzero"></path>
            <polyline id="Fill-2" fill-rule="nonzero" points="388.629 14.713 425.728 14.713 425.728 23.883 399.536 23.883 399.536 34.513 423.573 34.513 423.573 42.989 399.536 42.989 399.536 55.146 426.283 55.146 426.283 64.317 388.629 64.317 388.629 14.713"></polyline>
            <path d="M444.496,37.153 L456.445,37.153 C461.309,37.153 463.948,35.069 463.948,30.066 C463.948,25.273 461.309,23.188 456.445,23.188 L444.496,23.188 L444.496,37.153 Z M433.589,14.713 L460.336,14.713 C469.229,14.713 474.855,20.896 474.855,28.399 C474.855,34.235 472.493,38.612 467.005,40.835 L467.005,40.974 C472.354,42.363 473.883,47.574 474.23,52.576 C474.438,55.702 474.369,61.538 476.314,64.317 L465.407,64.317 C464.087,61.19 464.227,56.397 463.671,52.437 C462.906,47.226 460.892,44.934 455.403,44.934 L444.496,44.934 L444.496,64.317 L433.589,64.317 L433.589,14.713 Z" id="Fill-3" fill-rule="nonzero"></path>
            <polyline id="Fill-4" fill-rule="nonzero" points="483.134 14.713 494.041 14.713 494.041 55.146 518.218 55.146 518.218 64.317 483.134 64.317 483.134 14.713"></polyline>
            <polygon id="Fill-5" fill-rule="nonzero" points="523.035 64.317 533.942 64.317 533.942 14.713 523.035 14.713"></polygon>
            <polyline id="Fill-6" fill-rule="nonzero" points="542.982 14.713 553.82 14.713 574.523 47.991 574.662 47.991 574.662 14.713 584.875 14.713 584.875 64.317 573.967 64.317 553.334 31.109 553.194 31.109 553.194 64.317 542.982 64.317 542.982 14.713"></polyline>
            <polygon id="Fill-7" fill-rule="nonzero" points="594.036 64.317 604.943 64.317 604.943 14.713 594.036 14.713"></polygon>
            <path d="M621.653,47.851 C621.653,54.452 626.794,57.022 632.63,57.022 C636.451,57.022 642.287,55.911 642.287,50.839 C642.287,45.49 634.853,44.586 627.559,42.641 C620.194,40.696 612.761,37.848 612.761,28.538 C612.761,18.395 622.348,13.532 631.31,13.532 C641.661,13.532 651.18,18.048 651.18,29.511 L640.619,29.511 C640.271,23.536 636.034,22.008 630.823,22.008 C627.35,22.008 623.32,23.467 623.32,27.635 C623.32,31.456 625.683,31.942 638.118,35.138 C641.73,36.041 652.847,38.334 652.847,49.588 C652.847,58.689 645.69,65.498 632.213,65.498 C621.236,65.498 610.954,60.079 611.093,47.851 L621.653,47.851" id="Fill-8" fill-rule="nonzero"></path>
            <path d="M691.658,31.387 C690.963,26.454 686.239,22.703 680.82,22.703 C671.024,22.703 667.342,31.039 667.342,39.723 C667.342,47.991 671.024,56.328 680.82,56.328 C687.489,56.328 691.241,51.742 692.074,45.212 L702.635,45.212 C701.523,57.578 692.978,65.498 680.82,65.498 C665.467,65.498 656.435,54.035 656.435,39.723 C656.435,24.995 665.467,13.532 680.82,13.532 C691.728,13.532 700.897,19.923 702.218,31.387 L691.658,31.387" id="Fill-9" fill-rule="nonzero"></path>
            <polyline id="Fill-10" fill-rule="nonzero" points="709.302 14.713 720.209 14.713 720.209 33.748 740.286 33.748 740.286 14.713 751.193 14.713 751.193 64.317 740.286 64.317 740.286 42.919 720.209 42.919 720.209 64.317 709.302 64.317 709.302 14.713"></polyline>
            <polyline id="Fill-11" fill-rule="nonzero" points="760.355 14.713 797.454 14.713 797.454 23.883 771.263 23.883 771.263 34.513 795.3 34.513 795.3 42.989 771.263 42.989 771.263 55.146 798.01 55.146 798.01 64.317 760.355 64.317 760.355 14.713"></polyline>
            <path d="M376.001,127.189 C372.181,132.122 367.178,133.998 362.385,133.998 C347.031,133.998 337.999,122.535 337.999,108.223 C337.999,93.495 347.031,82.032 362.385,82.032 C372.527,82.032 382.115,88.285 383.296,99.539 L372.875,99.539 C371.624,94.051 367.525,91.203 362.385,91.203 C352.589,91.203 348.906,99.539 348.906,108.223 C348.906,116.491 352.589,124.828 362.385,124.828 C369.471,124.828 373.569,121.006 374.195,114.128 L363.218,114.128 L363.218,106 L384.061,106 L384.061,132.817 L377.113,132.817 L376.001,127.189" id="Fill-12" fill-rule="nonzero"></path>
            <path d="M405.538,113.642 L418.391,113.642 L412.138,95.44 L411.999,95.44 L405.538,113.642 Z M406.58,83.213 L417.766,83.213 L436.314,132.817 L424.99,132.817 L421.239,121.77 L402.689,121.77 L398.799,132.817 L387.753,132.817 L406.58,83.213 Z" id="Fill-13" fill-rule="nonzero"></path>
            <polyline id="Fill-14" fill-rule="nonzero" points="440.321 83.213 451.229 83.213 451.229 123.646 475.405 123.646 475.405 132.817 440.321 132.817 440.321 83.213"></polyline>
            <polyline id="Fill-15" fill-rule="nonzero" points="480.224 83.213 517.322 83.213 517.322 92.383 491.131 92.383 491.131 103.013 515.168 103.013 515.168 111.489 491.131 111.489 491.131 123.646 517.878 123.646 517.878 132.817 480.224 132.817 480.224 83.213"></polyline>
            <path d="M536.091,105.653 L548.04,105.653 C552.903,105.653 555.543,103.569 555.543,98.566 C555.543,93.773 552.903,91.688 548.04,91.688 L536.091,91.688 L536.091,105.653 Z M525.184,83.213 L551.931,83.213 C560.823,83.213 566.45,89.396 566.45,96.899 C566.45,102.735 564.088,107.112 558.6,109.335 L558.6,109.474 C563.949,110.863 565.478,116.074 565.825,121.076 C566.033,124.202 565.964,130.038 567.909,132.817 L557.002,132.817 C555.682,129.69 555.821,124.897 555.266,120.937 C554.501,115.726 552.486,113.434 546.998,113.434 L536.091,113.434 L536.091,132.817 L525.184,132.817 L525.184,83.213 Z" id="Fill-16" fill-rule="nonzero"></path>
            <polygon id="Fill-17" fill-rule="nonzero" points="574.693 132.817 585.601 132.817 585.601 83.213 574.693 83.213"></polygon>
            <polyline id="Fill-18" fill-rule="nonzero" points="594.641 83.213 631.739 83.213 631.739 92.383 605.548 92.383 605.548 103.013 629.585 103.013 629.585 111.489 605.548 111.489 605.548 123.646 632.295 123.646 632.295 132.817 594.641 132.817 594.641 83.213"></polyline>
            <polyline id="Fill-19" fill-rule="nonzero" points="340.152 151.713 349.185 151.713 364.815 193.397 380.517 151.713 389.548 151.713 389.548 201.317 383.296 201.317 383.296 160.05 383.156 160.05 367.664 201.317 362.037 201.317 346.544 160.05 346.405 160.05 346.405 201.317 340.152 201.317 340.152 151.713"></polyline>
            <path d="M439.012,183.392 C439.012,195.897 431.856,202.498 419.49,202.498 C406.707,202.498 399.134,196.593 399.134,183.392 L399.134,151.713 L405.734,151.713 L405.734,183.392 C405.734,192.146 410.736,196.94 419.49,196.94 C427.826,196.94 432.412,192.146 432.412,183.392 L432.412,151.713 L439.012,151.713 L439.012,183.392" id="Fill-20" fill-rule="nonzero"></path>
            <path d="M477.038,166.233 C476.273,159.146 471.55,156.09 464.741,156.09 C459.184,156.09 453.626,158.104 453.626,164.565 C453.626,170.679 461.546,171.583 469.535,173.389 C477.455,175.194 485.375,177.974 485.375,187.7 C485.375,198.261 475.023,202.498 465.992,202.498 C454.876,202.498 445.497,197.079 445.497,184.991 L451.75,184.991 C451.75,193.327 458.697,196.94 466.2,196.94 C472.175,196.94 478.775,195.064 478.775,187.909 C478.775,181.1 470.855,179.919 462.936,178.182 C455.015,176.445 447.025,174.153 447.025,165.052 C447.025,154.977 455.987,150.532 465.02,150.532 C475.162,150.532 482.874,155.325 483.291,166.233 L477.038,166.233" id="Fill-21" fill-rule="nonzero"></path>
            <polyline id="Fill-22" fill-rule="nonzero" points="492.458 151.713 526.708 151.713 526.708 157.27 499.058 157.27 499.058 173.042 524.832 173.042 524.832 178.599 499.058 178.599 499.058 195.759 526.917 195.759 526.917 201.317 492.458 201.317 492.458 151.713"></polyline>
            <path d="M572.237,183.392 C572.237,195.897 565.082,202.498 552.716,202.498 C539.933,202.498 532.359,196.593 532.359,183.392 L532.359,151.713 L538.96,151.713 L538.96,183.392 C538.96,192.146 543.962,196.94 552.716,196.94 C561.052,196.94 565.638,192.146 565.638,183.392 L565.638,151.713 L572.237,151.713 L572.237,183.392" id="Fill-23" fill-rule="nonzero"></path>
            <polyline id="Fill-24" fill-rule="nonzero" points="581.786 151.713 590.818 151.713 606.449 193.397 622.15 151.713 631.182 151.713 631.182 201.317 624.93 201.317 624.93 160.05 624.79 160.05 609.298 201.317 603.671 201.317 588.178 160.05 588.039 160.05 588.039 201.317 581.786 201.317 581.786 151.713"></polyline>
            <polyline id="Fill-25" fill-rule="nonzero" points="662.174 151.713 694.757 151.713 694.757 157.27 668.773 157.27 668.773 173.042 691.561 173.042 691.561 178.599 668.773 178.599 668.773 201.317 662.174 201.317 662.174 151.713"></polyline>
            <path d="M723.308,147.891 L729.56,147.891 L729.56,140.666 L723.308,140.666 L723.308,147.891 Z M710.246,147.891 L716.499,147.891 L716.499,140.666 L710.246,140.666 L710.246,147.891 Z M739.842,183.392 C739.842,195.897 732.687,202.498 720.32,202.498 C707.537,202.498 699.964,196.593 699.964,183.392 L699.964,151.713 L706.564,151.713 L706.564,183.392 C706.564,192.146 711.566,196.94 720.32,196.94 C728.656,196.94 733.242,192.146 733.242,183.392 L733.242,151.713 L739.842,151.713 L739.842,183.392 Z" id="Fill-26" fill-rule="nonzero"></path>
            <path d="M769.684,174.569 C775.867,174.569 781.146,172.972 781.146,165.747 C781.146,160.884 778.507,157.27 772.324,157.27 L755.928,157.27 L755.928,174.569 L769.684,174.569 Z M749.328,151.713 L772.671,151.713 C781.98,151.713 787.747,156.784 787.747,164.704 C787.747,170.679 785.106,175.612 779.132,177.279 L779.132,177.418 C784.898,178.53 786.079,182.767 786.565,187.631 C786.982,192.493 786.705,197.913 789.483,201.317 L782.119,201.317 C780.244,199.302 781.286,193.952 780.313,189.09 C779.618,184.226 778.438,180.128 772.046,180.128 L755.928,180.128 L755.928,201.317 L749.328,201.317 L749.328,151.713 Z" id="Fill-27" fill-rule="nonzero"></path>
            <polyline id="Fill-28" fill-rule="nonzero" points="340.152 220.213 349.185 220.213 364.815 261.897 380.517 220.213 389.548 220.213 389.548 269.817 383.296 269.817 383.296 228.55 383.156 228.55 367.664 269.817 362.037 269.817 346.544 228.55 346.405 228.55 346.405 269.817 340.152 269.817 340.152 220.213"></polyline>
            <path d="M420.663,265.44 C432.752,265.44 437.823,255.018 437.823,245.015 C437.823,235.011 432.752,224.59 420.663,224.59 C408.575,224.59 403.504,235.011 403.504,245.015 C403.504,255.018 408.575,265.44 420.663,265.44 Z M420.663,219.032 C436.434,219.032 444.424,231.537 444.424,245.015 C444.424,258.493 436.434,270.998 420.663,270.998 C404.894,270.998 396.903,258.493 396.903,245.015 C396.903,231.537 404.894,219.032 420.663,219.032 Z" id="Fill-29" fill-rule="nonzero"></path>
            <path d="M458.177,264.259 L469.154,264.259 C473.67,264.259 485.827,263.009 485.827,244.737 C485.827,232.927 481.45,225.77 469.293,225.77 L458.177,225.77 L458.177,264.259 Z M451.577,220.213 L468.598,220.213 C483.882,220.213 492.428,227.854 492.428,243.834 C492.428,260.438 485.133,269.817 468.598,269.817 L451.577,269.817 L451.577,220.213 Z" id="Fill-30" fill-rule="nonzero"></path>
            <polyline id="Fill-31" fill-rule="nonzero" points="499.816 220.213 534.066 220.213 534.066 225.77 506.416 225.77 506.416 241.542 532.191 241.542 532.191 247.099 506.416 247.099 506.416 264.259 534.275 264.259 534.275 269.817 499.816 269.817 499.816 220.213"></polyline>
            <path d="M560.895,243.069 C567.078,243.069 572.357,241.472 572.357,234.247 C572.357,229.384 569.718,225.77 563.535,225.77 L547.139,225.77 L547.139,243.069 L560.895,243.069 Z M540.539,220.213 L563.882,220.213 C573.191,220.213 578.958,225.284 578.958,233.204 C578.958,239.179 576.317,244.112 570.343,245.779 L570.343,245.918 C576.109,247.03 577.29,251.267 577.776,256.131 C578.193,260.993 577.916,266.413 580.694,269.817 L573.33,269.817 C571.455,267.802 572.497,262.452 571.524,257.59 C570.829,252.726 569.648,248.628 563.257,248.628 L547.139,248.628 L547.139,269.817 L540.539,269.817 L540.539,220.213 Z" id="Fill-32" fill-rule="nonzero"></path>
            <polyline id="Fill-33" fill-rule="nonzero" points="587.348 220.213 594.364 220.213 620.486 260.438 620.625 260.438 620.625 220.213 626.878 220.213 626.878 269.817 619.652 269.817 593.739 230.009 593.6 230.009 593.6 269.817 587.348 269.817 587.348 220.213"></polyline>
            <polyline id="Fill-34" fill-rule="nonzero" points="636.559 220.213 670.809 220.213 670.809 225.77 643.158 225.77 643.158 241.542 668.934 241.542 668.934 247.099 643.158 247.099 643.158 264.259 671.018 264.259 671.018 269.817 636.559 269.817 636.559 220.213"></polyline>
            <polyline id="Fill-35" fill-rule="nonzero" points="699.021 220.213 705.62 220.213 705.62 244.945 730.77 220.213 739.315 220.213 718.403 240.222 740.148 269.817 731.812 269.817 713.888 244.737 705.62 252.448 705.62 269.817 699.021 269.817 699.021 220.213"></polyline>
            <path d="M783.865,251.892 C783.865,264.397 776.71,270.998 764.344,270.998 C751.561,270.998 743.987,265.093 743.987,251.892 L743.987,220.213 L750.588,220.213 L750.588,251.892 C750.588,260.646 755.59,265.44 764.344,265.44 C772.68,265.44 777.266,260.646 777.266,251.892 L777.266,220.213 L783.865,220.213 L783.865,251.892" id="Fill-36" fill-rule="nonzero"></path>
            <polyline id="Fill-37" fill-rule="nonzero" points="793.317 220.213 800.334 220.213 826.456 260.438 826.595 260.438 826.595 220.213 832.848 220.213 832.848 269.817 825.622 269.817 799.709 230.009 799.569 230.009 799.569 269.817 793.317 269.817 793.317 220.213"></polyline>
            <path d="M871.408,234.733 C870.645,227.646 865.92,224.59 859.111,224.59 C853.554,224.59 847.996,226.604 847.996,233.065 C847.996,239.179 855.916,240.083 863.905,241.889 C871.825,243.694 879.745,246.474 879.745,256.2 C879.745,266.761 869.394,270.998 860.362,270.998 C849.246,270.998 839.867,265.579 839.867,253.491 L846.12,253.491 C846.12,261.827 853.067,265.44 860.57,265.44 C866.545,265.44 873.146,263.564 873.146,256.409 C873.146,249.6 865.226,248.419 857.305,246.682 C849.385,244.945 841.396,242.653 841.396,233.552 C841.396,223.477 850.357,219.032 859.39,219.032 C869.532,219.032 877.244,223.825 877.661,234.733 L871.408,234.733" id="Fill-38" fill-rule="nonzero"></path>
            <polyline id="Fill-39" fill-rule="nonzero" points="897.367 225.77 880.832 225.77 880.832 220.213 920.502 220.213 920.502 225.77 903.967 225.77 903.967 269.817 897.367 269.817 897.367 225.77"></polyline>
            <g id="Group-43">
                <path d="M141.7615,284 L0.06,284 L0.06,0.536 L141.7615,0.536 L283.463,0.536 L283.463,284 L141.7615,284 Z M14.174,269.828 L269.289,269.828 L269.289,14.71 L14.174,14.71 L14.174,269.828 Z" id="path-1"></path>
                <path d="M84.742,177.167 L114.756,177.167 C125.832,177.167 135.479,173.593 135.479,160.373 C135.479,147.331 127.26,142.149 115.291,142.149 L84.742,142.149 L84.742,177.167 Z M84.742,123.034 L113.146,123.034 C122.975,123.034 130.299,118.567 130.299,107.849 C130.299,95.7 121.008,93.199 111.002,93.199 L84.742,93.199 L84.742,123.034 Z M56.693,71.403 L116.721,71.403 C141.018,71.403 157.453,79.264 157.453,103.025 C157.453,115.531 151.201,124.285 140.125,129.645 C155.668,134.11 163.527,146.08 163.527,161.981 C163.527,187.886 141.553,198.962 118.508,198.962 L56.693,198.962 L56.693,71.403 Z" id="Fill-40" fill-rule="nonzero"></path>
            </g>
            <polygon id="Fill-44" fill-rule="nonzero" points="167.084 84.158 226.611 84.158 226.611 71.402 167.084 71.402"></polygon>
            <path d="M215.547,149.208 C210.543,155.673 203.814,157.934 197.529,157.934 C177.402,157.934 165.229,142.611 165.229,124.151 C165.229,104.846 177.678,89.82 197.803,89.82 C211.1,89.82 224.455,97.751 225.977,113.084 L210.658,113.084 C209.367,105.726 202.813,103.14 197.303,103.14 C185.947,103.14 180.898,113.084 180.898,124.467 C180.898,135.303 185.977,144.612 197.355,144.612 C205.463,144.612 211.813,140.56 212.576,132.654 L199.475,132.654 L199.475,121.005 L226.826,121.005 L226.826,156.481 L216.785,156.481 L215.547,149.208" id="Fill-45" fill-rule="nonzero"></path>
        </g>
    </g>
</svg>
