<?xml version="1.0" encoding="UTF-8"?>
<svg width="438px" height="78px" viewBox="0 0 438 78" version="1.1" xmlns="http://www.w3.org/2000/svg" xmlns:xlink="http://www.w3.org/1999/xlink">
    <!-- Generator: Sketch 49.3 (51167) - http://www.bohemiancoding.com/sketch -->
    <title>fh-potsdam</title>
    <desc>Created with Sketch.</desc>
    <defs></defs>
    <g id="Page-1" stroke="none" stroke-width="1" fill="none" fill-rule="evenodd">
        <g id="fh-potsdam" fill="#000000" fill-rule="nonzero">
            <path d="M130.3,57.2 C130.3,65.4 128.4,71.6 121,77.4 L112.9,70.6 C117.1,66.6 118.5,63.6 118.6,58.7 L112.1,58.7 L112.1,40.3 L130.3,40.3 L130.3,57.2 Z" id="Shape"></path>
            <rect id="Rectangle-path" x="112.3" y="9.8" width="18" height="18.3"></rect>
            <polygon id="Shape" points="0 58.7 0 0.7 43.6 0.7 43.6 14.5 17.5 14.5 17.5 24.7 41.6 24.7 41.6 38.5 17.5 38.5 17.5 58.7"></polygon>
            <polygon id="Shape" points="84.3 58.7 84.3 36 67.3 36 67.3 58.7 49.4 58.7 49.4 0.7 67.3 0.7 67.3 21.1 84.2 21.1 84.2 0.7 102.2 0.7 102.2 58.7"></polygon>
            <path d="M140.5,58.7 L140.5,0.7 L165.3,0.7 C176.7,0.7 181.6,1.9 185.1,4.2 C190.2,7.6 192.7,13.1 192.7,20.3 C192.7,27 190.1,32.8 185.4,36.2 C181.4,39.1 176.1,40.5 167.1,40.5 L158.3,40.5 L158.3,58.7 L140.5,58.7 Z M165.1,27 C168.6,27 171.1,26.5 172.5,25.4 C173.8,24.3 174.3,22.7 174.3,20.8 C174.3,19 173.8,17.4 172.5,16.2 C171.2,15 169.1,14.6 165.4,14.6 L158.3,14.6 L158.3,27 L165.1,27 Z" id="Shape"></path>
            <polygon id="Shape" points="223.8 2.8 223.8 6.6 227.6 6.6 227.6 8.6 223.8 8.6 223.8 14.3 221.1 14.3 221.1 0.7 228.1 0.7 228.1 2.8"></polygon>
            <path d="M235.6,14.3 L235.4,13.3 C234.5,14 233.6,14.6 232.3,14.6 C230.3,14.6 229.2,13.6 229.2,11.7 C229.2,9.6 230.9,8.2 234.4,8.2 L235,8.2 L235,7.4 C235,6.4 234.4,5.9 233.1,5.9 C232.1,5.9 230.9,6.2 230,6.5 L229.7,4.9 C230.9,4.4 232.2,4 233.8,4 C236.4,4 237.6,5.2 237.6,7.1 L237.6,14.3 L235.6,14.3 Z M235,9.7 L234.2,9.7 C232.2,9.7 231.7,10.3 231.7,11.3 C231.7,12.1 232.2,12.6 233.1,12.6 C233.7,12.6 234.4,12.3 235,11.7 L235,9.7 Z" id="Shape"></path>
            <path d="M243.9,14.5 C241.2,14.5 239.9,12.8 239.9,9.4 C239.9,6.2 241.5,4 244.1,4 C245.4,4 246.4,4.5 247.1,5.3 L246.2,6.6 C245.7,6.2 245.2,5.9 244.5,5.9 C243.3,5.9 242.6,7 242.6,9.1 C242.6,11.6 243.3,12.5 244.4,12.5 C245.2,12.5 245.9,12.2 246.5,11.7 L247.3,13 C246.6,13.8 245.5,14.5 243.9,14.5 Z" id="Shape"></path>
            <path d="M257.5,14.3 L254.9,14.3 C254.9,12.2 255,10.1 255,9 C255,6.6 254.5,6 253.6,6 C253.1,6 252.4,6.3 251.7,6.8 L251.7,14.2 L249.1,14.2 L249.1,0 L251.7,0 L251.7,5.1 C252.4,4.5 253.4,4 254.5,4 C256.5,4 257.6,5.3 257.6,8.6 C257.6,9.8 257.5,12.1 257.5,14.3 Z" id="Shape"></path>
            <path d="M268.8,14.3 L266.2,14.3 C266.2,12.2 266.3,10.1 266.3,9 C266.3,6.6 265.8,6 264.9,6 C264.4,6 263.7,6.3 263,6.8 L263,14.2 L260.4,14.2 L260.4,0 L263,0 L263,5.1 C263.7,4.5 264.7,4 265.8,4 C267.8,4 268.9,5.3 268.9,8.6 C268.9,9.8 268.8,12.1 268.8,14.3 Z" id="Shape"></path>
            <path d="M275.6,14.5 C272.7,14.5 271.1,13 271.1,9.4 C271.1,5.7 273,3.9 276,3.9 C278.9,3.9 280.5,5.4 280.5,9 C280.5,12.8 278.6,14.5 275.6,14.5 Z M275.8,5.9 C274.6,5.9 273.8,6.7 273.8,9 C273.8,11.8 274.5,12.6 275.8,12.6 C277,12.6 277.8,11.8 277.8,9.5 C277.9,6.6 277.1,5.9 275.8,5.9 Z" id="Shape"></path>
            <path d="M286.4,14.5 C283.7,14.5 282.4,12.8 282.4,9.4 C282.4,6.2 284,4 286.6,4 C287.9,4 288.9,4.5 289.6,5.3 L288.7,6.6 C288.2,6.2 287.7,5.9 287,5.9 C285.8,5.9 285.1,7 285.1,9.1 C285.1,11.6 285.8,12.5 286.9,12.5 C287.7,12.5 288.4,12.2 289,11.7 L289.8,13 C289,13.8 287.9,14.5 286.4,14.5 Z" id="Shape"></path>
            <path d="M299.9,14.3 L297.3,14.3 C297.3,12.2 297.4,10.1 297.4,9 C297.4,6.6 296.9,6 296,6 C295.5,6 294.8,6.3 294.1,6.8 L294.1,14.2 L291.5,14.2 L291.5,0 L294.1,0 L294.1,5.1 C294.8,4.5 295.8,4 296.9,4 C298.9,4 300,5.3 300,8.6 C300,9.8 299.9,12.1 299.9,14.3 Z" id="Shape"></path>
            <path d="M305.2,14.5 C304.1,14.5 303,14.2 302.1,13.7 L302.3,12.3 C303.5,12.6 304.1,12.6 304.8,12.6 C306.1,12.6 306.6,12.1 306.6,11.5 C306.6,10.8 306.3,10.5 304.8,10 C302.9,9.3 302.1,8.5 302.1,7 C302.1,5.2 303.6,3.9 305.8,3.9 C306.7,3.9 307.6,4.1 308.6,4.6 L308.3,6 C307.5,5.8 306.9,5.7 306.3,5.7 C305.3,5.7 304.8,6.2 304.8,6.7 C304.8,7.3 305.1,7.6 306.6,8.1 C308.6,8.8 309.3,9.7 309.3,11.2 C309.3,13.1 307.8,14.5 305.2,14.5 Z" id="Shape"></path>
            <path d="M315,14.5 C312.3,14.5 311,12.8 311,9.4 C311,6.2 312.6,4 315.2,4 C316.5,4 317.5,4.5 318.2,5.3 L317.3,6.6 C316.8,6.2 316.3,5.9 315.6,5.9 C314.4,5.9 313.7,7 313.7,9.1 C313.7,11.6 314.4,12.5 315.5,12.5 C316.3,12.5 317,12.2 317.6,11.7 L318.4,13 C317.6,13.8 316.5,14.5 315,14.5 Z" id="Shape"></path>
            <path d="M328.5,14.3 L325.9,14.3 C325.9,12.2 326,10.1 326,9 C326,6.6 325.5,6 324.6,6 C324.1,6 323.4,6.3 322.7,6.8 L322.7,14.2 L320.1,14.2 L320.1,0 L322.7,0 L322.7,5.1 C323.4,4.5 324.4,4 325.5,4 C327.5,4 328.6,5.3 328.6,8.6 C328.6,9.8 328.5,12.1 328.5,14.3 Z" id="Shape"></path>
            <path d="M337.7,14.3 L337.5,13.2 C336.6,14 335.6,14.5 334.5,14.5 C332.4,14.5 331.4,13.2 331.4,9.9 C331.4,8.6 331.5,6.4 331.5,4.2 L334.1,4.2 C334.1,6.2 334,8.3 334,9.5 C334,11.9 334.5,12.4 335.4,12.4 C336,12.4 336.6,12.1 337.3,11.6 L337.3,4.2 L339.9,4.2 L339.9,14.3 L337.7,14.3 Z" id="Shape"></path>
            <path d="M344.7,14.5 C343.4,14.5 342.7,14.1 342.7,12.5 L342.7,0 L345.3,0 L345.3,11.4 C345.3,12.5 345.4,12.7 346,12.7 C346.2,12.7 346.4,12.7 346.5,12.7 L346.6,14.2 C346.1,14.4 345.5,14.5 344.7,14.5 Z" id="Shape"></path>
            <path d="M350.5,9.8 L350.5,9.9 C350.5,11.8 351.3,12.5 352.8,12.5 C353.7,12.5 354.9,12.3 356.1,11.9 L356.5,13.4 C355.3,14 353.8,14.5 352.3,14.5 C349.7,14.5 347.9,13.2 347.9,9.5 C347.9,5.9 349.7,4 352.5,4 C355.1,4 356.8,5.5 356.5,9.8 L350.5,9.8 Z M353.9,8.1 C353.9,6.5 353.4,5.7 352.3,5.7 C351.2,5.7 350.6,6.7 350.5,8.1 L353.9,8.1 Z" id="Shape"></path>
            <path d="M367.6,9.7 L367,9.7 L367,14.3 L364.3,14.3 L364.3,0.7 C365.6,0.7 366.9,0.7 368.3,0.7 C372,0.7 373.3,2.4 373.3,5 C373.3,7.7 371.8,9.7 367.6,9.7 Z M367.8,2.6 L367,2.6 L367,7.7 L367.8,7.7 C369.6,7.7 370.4,6.8 370.4,5.2 C370.4,3.5 369.7,2.6 367.8,2.6 Z" id="Shape"></path>
            <path d="M379.1,14.5 C376.2,14.5 374.6,13 374.6,9.4 C374.6,5.7 376.5,3.9 379.5,3.9 C382.4,3.9 384,5.4 384,9 C384,12.8 382.1,14.5 379.1,14.5 Z M379.3,5.9 C378.1,5.9 377.3,6.7 377.3,9 C377.3,11.8 378,12.6 379.3,12.6 C380.5,12.6 381.3,11.8 381.3,9.5 C381.3,6.6 380.6,5.9 379.3,5.9 Z" id="Shape"></path>
            <path d="M389,14.5 C387.1,14.5 386.4,13.8 386.4,11.9 L386.4,6 L385.1,6 L385.1,4.2 L386.5,4.2 C386.7,3.3 386.9,2.4 387.1,1.3 L389,1.3 L389,4.2 L391.2,4.2 L391.2,6 L389,6 L389,11.2 C389,12.2 389.2,12.6 389.9,12.6 C390.2,12.6 390.6,12.6 391.3,12.4 L391.5,13.9 C390.6,14.3 389.8,14.5 389,14.5 Z" id="Shape"></path>
            <path d="M395.9,14.5 C394.8,14.5 393.7,14.2 392.8,13.7 L393,12.3 C394.2,12.6 394.8,12.6 395.5,12.6 C396.8,12.6 397.3,12.1 397.3,11.5 C397.3,10.8 397,10.5 395.5,10 C393.6,9.3 392.8,8.5 392.8,7 C392.8,5.2 394.3,3.9 396.5,3.9 C397.4,3.9 398.3,4.1 399.3,4.6 L399.1,6 C398.3,5.8 397.7,5.7 397.1,5.7 C396.1,5.7 395.6,6.2 395.6,6.7 C395.6,7.3 395.9,7.6 397.4,8.1 C399.4,8.8 400.1,9.7 400.1,11.2 C400.1,13.1 398.5,14.5 395.9,14.5 Z" id="Shape"></path>
            <path d="M408.3,14.3 L408.1,13.3 C407.3,14 406.3,14.6 405.3,14.6 C402.9,14.6 401.8,12.4 401.8,9.7 C401.8,5.6 404,4 406.8,4 C407.2,4 407.7,4 407.9,4.1 L407.9,0 L410.5,0 L410.5,14.3 L408.3,14.3 Z M407.8,6 C407.4,5.9 407,5.8 406.6,5.8 C405.3,5.8 404.4,6.9 404.4,9.3 C404.4,11.4 405,12.5 406.1,12.5 C406.6,12.5 407.2,12.2 407.9,11.7 L407.9,6 L407.8,6 Z" id="Shape"></path>
            <path d="M419.1,14.3 L418.9,13.3 C418,14 417.1,14.6 415.8,14.6 C413.8,14.6 412.7,13.6 412.7,11.7 C412.7,9.6 414.4,8.2 417.9,8.2 L418.5,8.2 L418.5,7.4 C418.5,6.4 417.9,5.9 416.6,5.9 C415.6,5.9 414.4,6.2 413.5,6.5 L413.2,4.9 C414.4,4.4 415.7,4 417.3,4 C419.9,4 421.1,5.2 421.1,7.1 L421.1,14.3 L419.1,14.3 Z M418.5,9.7 L417.7,9.7 C415.7,9.7 415.2,10.3 415.2,11.3 C415.2,12.1 415.7,12.6 416.6,12.6 C417.2,12.6 417.9,12.3 418.5,11.7 L418.5,9.7 Z" id="Shape"></path>
            <path d="M437.9,14.3 L435.3,14.3 C435.3,12.3 435.4,10.2 435.4,9 C435.4,6.6 435,6 434.1,6 C433.6,6 432.8,6.4 432.2,6.9 C432.3,7.2 432.3,7.7 432.3,8.4 L432.3,14.2 L429.7,14.2 L429.7,9 C429.7,6.6 429.3,6 428.4,6 C427.9,6 427.2,6.3 426.6,6.8 L426.6,14.2 L424,14.2 L424,4.2 L426.1,4.2 L426.3,5.3 C427.1,4.6 428.1,4 429.3,4 C430.5,4 431.4,4.6 431.8,5.5 C432.8,4.6 433.8,4 435,4 C437,4 438,5.3 438,8.6 C438,9.8 437.9,12.1 437.9,14.3 Z" id="Shape"></path>
            <path d="M225.9,36.7 C222.7,36.7 221,35.3 221,31.9 L221,22.9 L223.7,22.9 L223.7,31.6 C223.7,33.9 224.4,34.7 226.1,34.7 C227.6,34.7 228.5,34 228.5,31.7 L228.5,22.8 L231.2,22.8 L231.2,31.5 C231.2,35.3 229,36.7 225.9,36.7 Z" id="Shape"></path>
            <path d="M242.7,36.5 L240.1,36.5 C240.1,34.5 240.2,32.4 240.2,31.2 C240.2,28.8 239.7,28.3 238.8,28.3 C238.3,28.3 237.6,28.6 236.9,29.1 L236.9,36.5 L234.3,36.5 L234.3,26.4 L236.4,26.4 L236.6,27.5 C237.5,26.7 238.5,26.2 239.7,26.2 C241.7,26.2 242.8,27.5 242.8,30.8 C242.8,32 242.7,34.3 242.7,36.5 Z" id="Shape"></path>
            <path d="M247,25.1 C245.8,25.1 245.4,24.8 245.4,23.7 C245.4,22.7 245.7,22.3 247,22.3 C248.3,22.3 248.5,22.6 248.5,23.7 C248.5,24.7 248.2,25.1 247,25.1 Z M245.6,36.5 L245.6,26.4 L248.2,26.4 L248.2,36.5 L245.6,36.5 Z" id="Shape"></path>
            <path d="M256.4,36.5 L253,36.5 L250.1,26.4 L252.9,26.4 L254.5,32.1 L254.9,34.1 C255.7,31.4 256.3,28.9 256.6,26.4 L259.3,26.4 C258.8,29.9 257.8,33.3 256.4,36.5 Z" id="Shape"></path>
            <path d="M263.2,31.9 L263.2,32 C263.2,33.9 264,34.6 265.5,34.6 C266.4,34.6 267.6,34.4 268.8,34 L269.2,35.5 C268,36.1 266.5,36.6 265,36.6 C262.4,36.6 260.6,35.3 260.6,31.6 C260.6,28 262.4,26.1 265.2,26.1 C267.8,26.1 269.5,27.6 269.2,31.9 L263.2,31.9 Z M266.7,30.3 C266.7,28.7 266.2,27.9 265.1,27.9 C264,27.9 263.4,28.9 263.3,30.3 L266.7,30.3 Z" id="Shape"></path>
            <path d="M277.2,28.7 C276.8,28.6 276.5,28.6 276.3,28.6 C275.7,28.6 275.3,29 274.3,30.1 L274.3,36.5 L271.7,36.5 L271.7,26.4 L273.8,26.4 L274,28 C275,26.6 275.7,26.2 276.4,26.2 C276.7,26.2 277,26.3 277.4,26.4 L277.2,28.7 Z" id="Shape"></path>
            <path d="M281.7,36.7 C280.6,36.7 279.5,36.4 278.6,35.9 L278.8,34.5 C279.9,34.8 280.6,34.8 281.3,34.8 C282.6,34.8 283.1,34.3 283.1,33.7 C283.1,33 282.8,32.7 281.3,32.2 C279.4,31.5 278.6,30.7 278.6,29.2 C278.6,27.4 280.1,26.1 282.3,26.1 C283.2,26.1 284.1,26.3 285.1,26.8 L284.8,28.1 C284,27.9 283.4,27.8 282.8,27.8 C281.8,27.8 281.3,28.3 281.3,28.8 C281.3,29.4 281.6,29.7 283.1,30.2 C285.1,30.9 285.8,31.8 285.8,33.3 C285.8,35.3 284.3,36.7 281.7,36.7 Z" id="Shape"></path>
            <path d="M289.3,25.1 C288.1,25.1 287.7,24.8 287.7,23.7 C287.7,22.7 288,22.3 289.3,22.3 C290.6,22.3 290.8,22.6 290.8,23.7 C290.8,24.7 290.5,25.1 289.3,25.1 Z M287.9,36.5 L287.9,26.4 L290.5,26.4 L290.5,36.5 L287.9,36.5 Z" id="Shape"></path>
            <path d="M296.2,36.7 C294.3,36.7 293.6,36 293.6,34.1 L293.6,28.3 L292.3,28.3 L292.3,26.5 L293.7,26.5 C293.9,25.6 294.1,24.7 294.3,23.6 L296.2,23.6 L296.2,26.5 L298.4,26.5 L298.4,28.3 L296.2,28.3 L296.2,33.5 C296.2,34.5 296.4,34.9 297.1,34.9 C297.4,34.9 297.8,34.9 298.5,34.7 L298.7,36.2 C297.8,36.5 297,36.7 296.2,36.7 Z" id="Shape"></path>
            <path d="M301.1,40.1 C300.7,40.1 300.1,40 299.6,39.7 L299.6,38.2 C299.9,38.2 300.4,38.3 300.6,38.3 C301.2,38.3 301.7,38.2 302.1,37.9 C302.5,37.5 302.7,37.2 302.7,36.7 C302.7,36.3 302.6,35.7 302.2,34.7 L299.7,26.5 L302.5,26.5 L304,32 C304.3,33 304.5,33.9 304.4,34.5 C305.2,32.1 305.9,29 306.1,26.3 L308.8,26.3 C307.2,36.9 303.9,40.1 301.1,40.1 Z" id="Shape"></path>
            <path d="M319,36.7 C316.1,36.7 314.5,35.2 314.5,31.6 C314.5,27.9 316.4,26.1 319.4,26.1 C322.3,26.1 323.9,27.6 323.9,31.2 C323.9,35 322,36.7 319,36.7 Z M319.2,28.1 C318,28.1 317.2,28.9 317.2,31.2 C317.2,34 317.9,34.8 319.2,34.8 C320.4,34.8 321.2,34 321.2,31.7 C321.2,28.8 320.5,28.1 319.2,28.1 Z" id="Shape"></path>
            <path d="M331.3,24.1 C330.9,23.9 330.5,23.9 330.1,23.9 C329.3,23.9 329,24.3 329,25.2 L329,26.5 L330.8,26.5 L330.8,28.3 L329,28.3 L329,36.6 L326.4,36.6 L326.4,28.3 L325.1,28.3 L325.1,26.5 L326.4,26.5 L326.4,25.3 C326.4,23.3 327.2,22.1 329.2,22.1 C330.2,22.1 331,22.4 331.6,22.7 L331.3,24.1 Z" id="Shape"></path>
            <path d="M228,58.7 C227.8,57.9 227.6,56.8 227.4,56 L222.9,56 C222.7,56.8 222.5,57.8 222.3,58.7 L219.7,58.7 C220.7,54.2 222,49.5 223.5,45.1 L227.1,45.1 C228.7,49.8 229.9,54.1 230.9,58.7 L228,58.7 Z M225.1,47.5 C224.5,49.4 223.9,51.9 223.3,54 L226.9,54 C226.4,51.9 225.8,49.6 225.1,47.5 Z" id="Shape"></path>
            <path d="M236.4,58.9 C236.1,58.9 235.7,58.9 235.3,58.8 L235.3,62.1 L232.7,62.1 L232.7,48.6 L234.8,48.6 L235,49.6 C235.8,48.9 236.8,48.3 237.8,48.3 C240.2,48.3 241.4,50.5 241.4,53.2 C241.5,57.2 239.3,58.9 236.4,58.9 Z M237.2,50.3 C236.7,50.3 236.1,50.6 235.4,51.1 L235.4,56.7 C235.7,56.8 236.2,56.9 236.6,56.9 C237.9,56.9 238.8,55.8 238.8,53.4 C238.8,51.5 238.2,50.3 237.2,50.3 Z" id="Shape"></path>
            <path d="M247.5,58.9 C247.2,58.9 246.8,58.9 246.4,58.8 L246.4,62.1 L243.8,62.1 L243.8,48.6 L245.9,48.6 L246.1,49.6 C246.9,48.9 247.9,48.3 248.9,48.3 C251.3,48.3 252.5,50.5 252.5,53.2 C252.5,57.2 250.4,58.9 247.5,58.9 Z M248.2,50.3 C247.7,50.3 247.1,50.6 246.4,51.1 L246.4,56.7 C246.7,56.8 247.2,56.9 247.6,56.9 C248.9,56.9 249.8,55.8 249.8,53.4 C249.9,51.5 249.3,50.3 248.2,50.3 Z" id="Shape"></path>
            <path d="M256.9,58.8 C255.6,58.8 254.9,58.4 254.9,56.8 L254.9,44.4 L257.5,44.4 L257.5,55.8 C257.5,56.9 257.6,57.1 258.2,57.1 C258.4,57.1 258.6,57.1 258.7,57.1 L258.8,58.6 C258.3,58.7 257.7,58.8 256.9,58.8 Z" id="Shape"></path>
            <path d="M262.1,47.3 C260.9,47.3 260.5,47 260.5,45.9 C260.5,44.9 260.8,44.5 262.1,44.5 C263.4,44.5 263.6,44.8 263.6,45.9 C263.6,46.9 263.3,47.3 262.1,47.3 Z M260.8,58.7 L260.8,48.6 L263.4,48.6 L263.4,58.7 L260.8,58.7 Z" id="Shape"></path>
            <path d="M268.4,54.1 L268.4,54.2 C268.4,56.1 269.2,56.8 270.7,56.8 C271.6,56.8 272.8,56.6 274,56.2 L274.4,57.7 C273.2,58.3 271.7,58.8 270.2,58.8 C267.6,58.8 265.8,57.5 265.8,53.8 C265.8,50.2 267.6,48.3 270.4,48.3 C273,48.3 274.7,49.8 274.4,54.1 L268.4,54.1 Z M271.8,52.5 C271.8,50.9 271.3,50.1 270.2,50.1 C269.1,50.1 268.5,51.1 268.4,52.5 L271.8,52.5 Z" id="Shape"></path>
            <path d="M282.9,58.7 L282.7,57.7 C281.9,58.4 280.9,59 279.9,59 C277.5,59 276.4,56.8 276.4,54.1 C276.4,50 278.6,48.4 281.4,48.4 C281.8,48.4 282.3,48.4 282.5,48.5 L282.5,44.5 L285.1,44.5 L285.1,58.8 L282.9,58.8 L282.9,58.7 Z M282.4,50.4 C282,50.3 281.6,50.2 281.2,50.2 C279.9,50.2 279,51.3 279,53.7 C279,55.8 279.6,56.9 280.7,56.9 C281.2,56.9 281.8,56.6 282.5,56.1 L282.5,50.4 L282.4,50.4 Z" id="Shape"></path>
            <path d="M296.6,58.9 C295,58.9 293.7,58.4 292.5,57.6 L293.1,56.2 C294.2,56.6 295.3,56.9 296,56.9 C297.4,56.9 298.3,56.3 298.3,55.1 C298.3,52.4 292.6,53 292.6,48.7 C292.6,46.4 294.4,44.9 297,44.9 C298.3,44.9 299.5,45.2 300.6,46 L300,47.4 C299.1,47.1 298.2,46.9 297.5,46.9 C296.1,46.9 295.5,47.5 295.5,48.5 C295.5,51.2 301.3,50.7 301.3,54.9 C301.3,57.1 299.6,58.9 296.6,58.9 Z" id="Shape"></path>
            <path d="M307,58.9 C304.3,58.9 303,57.2 303,53.8 C303,50.6 304.6,48.4 307.2,48.4 C308.5,48.4 309.5,48.9 310.2,49.7 L309.3,51 C308.8,50.6 308.3,50.3 307.6,50.3 C306.4,50.3 305.7,51.4 305.7,53.5 C305.7,56 306.4,56.9 307.5,56.9 C308.3,56.9 309,56.6 309.6,56.1 L310.4,57.4 C309.7,58.2 308.6,58.9 307,58.9 Z" id="Shape"></path>
            <path d="M313.7,47.3 C312.5,47.3 312.1,47 312.1,45.9 C312.1,44.9 312.4,44.5 313.7,44.5 C315,44.5 315.2,44.8 315.2,45.9 C315.3,46.9 315,47.3 313.7,47.3 Z M312.4,58.7 L312.4,48.6 L315,48.6 L315,58.7 L312.4,58.7 Z" id="Shape"></path>
            <path d="M320,54.1 L320,54.2 C320,56.1 320.8,56.8 322.3,56.8 C323.2,56.8 324.4,56.6 325.6,56.2 L326,57.7 C324.8,58.3 323.3,58.8 321.8,58.8 C319.2,58.8 317.4,57.5 317.4,53.8 C317.4,50.2 319.2,48.3 322,48.3 C324.6,48.3 326.3,49.8 326,54.1 L320,54.1 Z M323.5,52.5 C323.5,50.9 323,50.1 321.9,50.1 C320.8,50.1 320.2,51.1 320.1,52.5 L323.5,52.5 Z" id="Shape"></path>
            <path d="M336.9,58.7 L334.3,58.7 C334.3,56.7 334.4,54.6 334.4,53.4 C334.4,51 333.9,50.5 333,50.5 C332.5,50.5 331.8,50.8 331.1,51.3 L331.1,58.7 L328.5,58.7 L328.5,48.6 L330.6,48.6 L330.8,49.7 C331.7,48.9 332.7,48.4 333.9,48.4 C335.9,48.4 337,49.7 337,53 C337,54.2 336.9,56.5 336.9,58.7 Z" id="Shape"></path>
            <path d="M343.3,58.9 C340.6,58.9 339.3,57.2 339.3,53.8 C339.3,50.6 340.9,48.4 343.5,48.4 C344.8,48.4 345.8,48.9 346.5,49.7 L345.6,51 C345.1,50.6 344.6,50.3 343.9,50.3 C342.7,50.3 342,51.4 342,53.5 C342,56 342.7,56.9 343.8,56.9 C344.6,56.9 345.3,56.6 345.9,56.1 L346.7,57.4 C345.9,58.2 344.8,58.9 343.3,58.9 Z" id="Shape"></path>
            <path d="M350.4,54.1 L350.4,54.2 C350.4,56.1 351.2,56.8 352.7,56.8 C353.6,56.8 354.8,56.6 356,56.2 L356.4,57.7 C355.2,58.3 353.7,58.8 352.2,58.8 C349.6,58.8 347.8,57.5 347.8,53.8 C347.8,50.2 349.6,48.3 352.4,48.3 C355,48.3 356.7,49.8 356.4,54.1 L350.4,54.1 Z M353.9,52.5 C353.9,50.9 353.4,50.1 352.3,50.1 C351.2,50.1 350.6,51.1 350.5,52.5 L353.9,52.5 Z" id="Shape"></path>
            <path d="M361.3,58.9 C360.2,58.9 359.1,58.6 358.2,58.1 L358.4,56.7 C359.5,57 360.2,57 360.9,57 C362.2,57 362.7,56.5 362.7,55.9 C362.7,55.2 362.4,54.9 360.9,54.4 C359,53.7 358.2,52.9 358.2,51.4 C358.2,49.6 359.7,48.3 361.9,48.3 C362.8,48.3 363.7,48.5 364.7,49 L364.4,50.3 C363.6,50.1 363,50 362.4,50 C361.4,50 360.9,50.5 360.9,51 C360.9,51.6 361.2,51.9 362.7,52.4 C364.7,53.1 365.4,54 365.4,55.5 C365.4,57.5 363.9,58.9 361.3,58.9 Z" id="Shape"></path>
        </g>
    </g>
</svg>
